# xmcd
#
# Track frame offsets:
#	150
#	13805
#	16886
#	21015
#	55161
#	79059
#	94025
#	108411
#	119825
#	131250
#	145628
#	174030
#	187685
#	190766
#	194895
#	229041
#	252939
#	267905
#	282291
#	293705
#	305130
#	319508
#
# Disc length: 4638 seconds
#
# Revision: 1
# Processed by: cddbd v1.5.1PL2 Copyright (c) Steve Scherf et al.
# Submitted via: audiograbber 1.83.01
#
DISCID=2c121c16
DTITLE=steve miller - ?
DYEAR=1900
DGENRE=
TTITLE0=Children of the Future
TTITLE1=Pushed Me to It
TTITLE2=You've Got the Power
TTITLE3=In My First Mind
TTITLE4=The Beauty of the Time Is That It's Snowing
TTITLE5=Baby's Callin' Me Home
TTITLE6=Steppin' Stone
TTITLE7=Roll with It
TTITLE8=Junior Saw It Happen
TTITLE9=Fanny Mae
TTITLE10=Key to the Highway
TTITLE11=Children of the Future
TTITLE12=Pushed Me to It
TTITLE13=You've Got the Power
TTITLE14=In My First Mind
TTITLE15=The Beauty of the Time Is That
TTITLE16=Baby's Callin' Me Home
TTITLE17=Steppin' Stone
TTITLE18=Roll with It
TTITLE19=Junior Saw It Happen
TTITLE20=Fanny Mae
TTITLE21=Key to the Highway
EXTD=
EXTT0=
EXTT1=
EXTT2=
EXTT3=
EXTT4=
EXTT5=
EXTT6=
EXTT7=
EXTT8=
EXTT9=
EXTT10=
EXTT11=
EXTT12=
EXTT13=
EXTT14=
EXTT15=
EXTT16=
EXTT17=
EXTT18=
EXTT19=
EXTT20=
EXTT21=
PLAYORDER=
